<svg width="18" height="18" viewBox="0 0 18 18" fill="none" xmlns="http://www.w3.org/2000/svg">
<path d="M3.20359 6.83997C2.05159 6.83997 1.07959 7.81197 1.07959 8.96397C1.07959 10.152 2.05159 11.088 3.20359 11.088C4.39159 11.088 5.32759 10.116 5.32759 8.96397C5.32759 7.81197 4.39159 6.83997 3.20359 6.83997Z" fill="#666666"/>
<path d="M14.7959 6.83997C13.6079 6.83997 12.6719 7.81197 12.6719 8.96397C12.6719 10.152 13.6439 11.088 14.7959 11.088C15.9479 11.088 16.9199 10.152 16.9199 8.96397C16.9199 7.81197 15.9479 6.83997 14.7959 6.83997Z" fill="#666666"/>
<path d="M9.10789 6.83997C7.91989 6.83997 6.98389 7.81197 6.98389 8.96397C6.98389 10.152 7.95589 11.088 9.10789 11.088C10.2959 11.088 11.2319 10.116 11.2319 8.96397C11.2319 7.81197 10.2959 6.83997 9.10789 6.83997Z" fill="#666666"/>
</svg>
