<svg width="15" height="15" viewBox="0 0 15 15" fill="none" xmlns="http://www.w3.org/2000/svg">
<path fill-rule="evenodd" clip-rule="evenodd" d="M1.09802 13.7603V1.22196C1.09802 0.672964 1.54076 0.230225 2.08976 0.230225H5.47228C6.02128 0.230225 6.48173 0.672964 6.48173 1.22196V13.7603C6.48173 14.327 6.02128 14.7698 5.47228 14.7698H2.08976C1.54076 14.7698 1.09802 14.327 1.09802 13.7603ZM8.51833 13.7603V1.22196C8.51833 0.672964 8.96107 0.230225 9.51006 0.230225H12.8926C13.4416 0.230225 13.902 0.672964 13.902 1.22196V13.7603C13.902 14.327 13.4416 14.7698 12.8926 14.7698H9.51006C8.96107 14.7698 8.51833 14.327 8.51833 13.7603Z" fill="white"/>
</svg>
