<svg width="16" height="16" viewBox="0 0 16 16" fill="none" xmlns="http://www.w3.org/2000/svg">
<g clip-path="url(#clip0_132_135)">
<path d="M6.80679 12C6.50258 12 6.21445 11.884 6.02982 11.684L3.53106 8.986C3.45381 8.90268 3.39741 8.80774 3.36508 8.70659C3.33276 8.60545 3.32515 8.50009 3.34269 8.39654C3.36022 8.29299 3.40256 8.19329 3.46728 8.10312C3.53201 8.01295 3.61784 7.93409 3.71988 7.87104C3.82189 7.80774 3.93818 7.7615 4.06209 7.73499C4.18601 7.70848 4.3151 7.70221 4.44198 7.71654C4.56887 7.73088 4.69104 7.76553 4.8015 7.81852C4.91196 7.87151 5.00854 7.9418 5.0857 8.02534L6.72986 9.79922L10.8637 4.37472C11.0008 4.19561 11.2192 4.06826 11.4711 4.02058C11.7229 3.97291 11.9876 4.00881 12.2071 4.12041C12.6638 4.35243 12.8044 4.8439 12.519 5.21765L7.63482 11.624C7.55144 11.7338 7.43652 11.8254 7.30002 11.8907C7.16352 11.956 7.00958 11.9932 6.85155 11.9989C6.83616 12 6.82218 12 6.80679 12Z" fill="#181059"/>
</g>
<defs>
<clipPath id="clip0_132_135">
<rect width="9.92" height="8.32" fill="white" transform="translate(3.04004 3.84003)"/>
</clipPath>
</defs>
</svg>
