<svg width="19" height="19" viewBox="0 0 19 19" fill="none" xmlns="http://www.w3.org/2000/svg">
<path d="M4.70361 15.6286V3.37139C4.70361 3.00958 5.11182 2.79805 5.40684 3.00587L14.1053 9.13448C14.3576 9.3126 14.3576 9.68741 14.1053 9.86554L5.40869 15.9941C5.11182 16.202 4.70361 15.9904 4.70361 15.6286Z" fill="white"/>
<path d="M4.9819 15.6286C4.9819 15.4152 4.9819 15.2 4.9819 14.9866C4.9819 14.4318 4.9819 13.8771 4.9819 13.3204C4.9819 12.556 4.9819 11.7897 4.9819 11.0252C4.9819 10.181 4.9819 9.33672 4.9819 8.49249C4.9819 7.7002 4.9819 6.90792 4.9819 6.11563C4.9819 5.50704 4.9819 4.89659 4.9819 4.28799C4.9819 3.99298 4.98005 3.6961 4.9819 3.40108C4.9819 3.39366 4.9819 3.38438 4.9819 3.37696C4.9819 3.3751 4.9819 3.37325 4.9819 3.37325C4.9819 3.36583 4.9819 3.35469 4.9819 3.34913C4.98376 3.29532 4.98376 3.34356 4.98005 3.35469C4.98561 3.33243 4.99118 3.31202 4.9986 3.28975C4.98005 3.34542 5.00788 3.28047 5.02087 3.26006C5.0153 3.2712 4.9819 3.29903 5.01716 3.26749C5.02643 3.25821 5.03757 3.24708 5.04685 3.2378C5.08024 3.20255 5.0487 3.2378 5.03942 3.24337C5.05056 3.2378 5.06354 3.22852 5.07468 3.2211C5.11179 3.19512 5.07653 3.21924 5.0654 3.22296C5.08581 3.21553 5.10436 3.20997 5.12478 3.2044C5.17116 3.18956 5.12477 3.2044 5.11364 3.2044C5.12663 3.2044 5.14147 3.2044 5.15632 3.20255C5.2027 3.19883 5.16003 3.20069 5.14704 3.19883C5.16188 3.20069 5.17487 3.2044 5.18972 3.20811C5.20456 3.21182 5.21755 3.21739 5.23239 3.2211C5.17673 3.20069 5.22497 3.21924 5.23796 3.22852C5.24724 3.23594 5.25837 3.24151 5.26765 3.24893C5.32517 3.2879 5.38269 3.33057 5.4402 3.36954C5.81501 3.63301 6.18796 3.89649 6.56276 4.15997C7.16394 4.58487 7.76696 5.00792 8.36813 5.43282C9.0528 5.91524 9.73933 6.39766 10.424 6.88194C11.0586 7.32911 11.6931 7.77628 12.3277 8.22344C12.7619 8.5296 13.1961 8.83389 13.6284 9.14005C13.7286 9.21055 13.8288 9.28106 13.929 9.35157C13.9383 9.35899 13.9475 9.36456 13.9568 9.37198C13.9809 9.39053 13.9364 9.34786 13.9568 9.37383C13.9661 9.38682 13.9791 9.3961 13.9902 9.40723C14.018 9.43692 13.9698 9.37198 13.9883 9.40723C13.9958 9.42022 14.0032 9.43506 14.0106 9.44805C14.0273 9.47589 14.0106 9.41465 14.0069 9.44434C14.005 9.45733 14.018 9.48516 14.0199 9.49815C14.018 9.48516 14.0199 9.44249 14.0162 9.49073C14.0162 9.50557 14.0162 9.52042 14.0143 9.53526C14.0143 9.49815 14.018 9.50557 14.0106 9.53897C14.0088 9.54825 13.9958 9.59278 14.0069 9.55938C14.0199 9.51856 13.9921 9.58721 13.9921 9.58721C13.9883 9.59649 13.9624 9.62989 13.9958 9.58721C13.9865 9.6002 13.9735 9.60948 13.9642 9.62247C13.9401 9.65215 13.9605 9.62803 13.9624 9.62618C13.7546 9.7876 13.53 9.93048 13.3148 10.0826C12.8046 10.4426 12.2925 10.8025 11.7822 11.1625C11.1179 11.6301 10.4537 12.0995 9.78942 12.5671C9.11218 13.044 8.43679 13.5208 7.75954 13.9958C7.21218 14.3817 6.66667 14.7658 6.11931 15.1518C5.8447 15.3447 5.57009 15.5396 5.29362 15.7325C5.2862 15.7381 5.27692 15.7437 5.2695 15.7492C5.26765 15.7511 5.26579 15.7511 5.26394 15.7529C5.25651 15.7566 5.18229 15.7993 5.21569 15.7845C5.24352 15.7715 5.16559 15.7956 5.15446 15.7993C5.12106 15.8105 5.21569 15.8049 5.15446 15.7975C5.14147 15.7956 5.12477 15.7956 5.11179 15.7956C5.12292 15.7956 5.17116 15.8105 5.12292 15.7956C5.10993 15.7919 5.09509 15.7882 5.0821 15.7845C5.06169 15.7789 5.0487 15.7604 5.09138 15.7882C5.0821 15.7808 5.0654 15.7733 5.05427 15.7678C5.01345 15.7492 5.0487 15.7659 5.05983 15.7752C5.0487 15.7659 5.03942 15.7566 5.02829 15.7474C5.01901 15.7381 5.00974 15.727 5.00046 15.7158C5.03942 15.7548 5.01345 15.7362 5.00602 15.7214C5.00046 15.7084 4.99118 15.6954 4.98561 15.6843C5.01345 15.7362 4.99118 15.6973 4.98561 15.6787C4.98376 15.6694 4.97077 15.6231 4.97819 15.6602C4.99304 15.7047 4.9819 15.6323 4.9819 15.6286C4.97819 15.4839 4.85573 15.3429 4.70358 15.3503C4.55515 15.3577 4.42155 15.4728 4.42526 15.6286C4.43454 15.9719 4.67204 16.2836 5.01901 16.3411C5.20827 16.3727 5.39753 16.3374 5.5571 16.2279C5.63688 16.1723 5.71667 16.1166 5.79645 16.0591C6.21208 15.7659 6.6277 15.4728 7.04333 15.1815C7.67419 14.738 8.30505 14.2927 8.93405 13.8492C9.63542 13.3557 10.3349 12.8621 11.0363 12.3686C11.6542 11.9325 12.272 11.4983 12.8899 11.0623C13.2796 10.7877 13.6692 10.5131 14.0589 10.2385C14.1201 10.1958 14.1832 10.1513 14.2444 10.1086C14.5042 9.9212 14.6415 9.6002 14.5394 9.28477C14.4838 9.11407 14.3743 8.98975 14.2314 8.8877C13.9735 8.70401 13.7137 8.52403 13.4558 8.34034C12.9103 7.95626 12.3648 7.57217 11.8193 7.18809C11.1346 6.70567 10.45 6.22325 9.76716 5.74268C9.08991 5.26583 8.41267 4.78897 7.73542 4.31026C7.21589 3.94473 6.69821 3.57921 6.17868 3.21368C5.96901 3.06524 5.7612 2.91124 5.54782 2.76837C5.26765 2.58096 4.89841 2.62549 4.65349 2.8463C4.50134 2.98174 4.42897 3.18214 4.42526 3.38253C4.42341 3.46417 4.42526 3.54581 4.42526 3.62745C4.42526 4.07462 4.42526 4.52364 4.42526 4.97081C4.42526 5.68702 4.42526 6.40508 4.42526 7.1213C4.42526 7.96739 4.42526 8.81534 4.42526 9.66143C4.42526 10.5001 4.42526 11.3388 4.42526 12.1756C4.42526 12.8658 4.42526 13.5542 4.42526 14.2444C4.42526 14.6526 4.42526 15.0608 4.42526 15.469C4.42526 15.5229 4.42526 15.5785 4.42526 15.6323C4.42526 15.7771 4.55329 15.9181 4.70358 15.9107C4.85573 15.8995 4.9819 15.7845 4.9819 15.6286Z" fill="white"/>
</svg>
